<svg width="171" height="83" viewBox="0 0 171 83" fill="none" xmlns="http://www.w3.org/2000/svg">
<path d="M17.6894 53.3664V63.3108C20.7272 67.036 24.5567 70.0375 28.8997 72.0973C33.2428 74.1571 37.9902 75.2234 42.7969 75.2188C54.0123 75.2188 63.8996 69.5229 69.72 60.8675V46.9287C67.728 60.009 56.4322 70.0313 42.7969 70.0313C31.5037 70.0313 21.816 63.1578 17.6894 53.3664ZM64.9216 26.9128V22.4463C64.9139 21.4612 65.0753 20.4822 65.3988 19.5517C59.353 13.6575 51.2404 10.3637 42.7969 10.375C35.2409 10.3638 27.9202 13.0026 22.1091 17.832L22.1221 17.9902L22.1247 18.0603V25.0634C24.679 22.0798 27.8498 19.6854 31.4185 18.0452C34.9873 16.405 38.8692 15.558 42.7969 15.5625C51.9113 15.5625 59.9779 20.0393 64.9216 26.9128Z" fill="black"/>
<path d="M63.5469 42.7969C63.5469 48.3001 61.3607 53.578 57.4693 57.4693C53.578 61.3607 48.3001 63.5469 42.7969 63.5469C37.2936 63.5469 32.0158 61.3607 28.1244 57.4693C24.233 53.578 22.0469 48.3001 22.0469 42.7969C22.0469 37.2936 24.233 32.0158 28.1244 28.1244C32.0158 24.233 37.2936 22.0469 42.7969 22.0469C48.3001 22.0469 53.578 24.233 57.4693 28.1244C61.3607 32.0158 63.5469 37.2936 63.5469 42.7969ZM42.7969 60.9531C45.1812 60.9531 47.5422 60.4835 49.745 59.5711C51.9478 58.6586 53.9493 57.3212 55.6353 55.6353C57.3212 53.9493 58.6586 51.9478 59.5711 49.745C60.4835 47.5422 60.9531 45.1812 60.9531 42.7969C60.9531 40.4126 60.4835 38.0516 59.5711 35.8488C58.6586 33.646 57.3212 31.6444 55.6353 29.9585C53.9493 28.2725 51.9478 26.9351 49.745 26.0227C47.5422 25.1103 45.1812 24.6406 42.7969 24.6406C37.9815 24.6406 33.3634 26.5535 29.9585 29.9585C26.5535 33.3634 24.6406 37.9815 24.6406 42.7969C24.6406 47.6122 26.5535 52.2303 29.9585 55.6353C33.3634 59.0402 37.9815 60.9531 42.7969 60.9531ZM77.7866 20.5944C77.7866 18.26 75.8931 16.3666 73.5588 16.3666C70.1869 16.3666 67.4894 19.09 67.5153 22.4359V36.8312C67.5153 40.0812 69.3984 42.9914 72.3137 44.309V66.6594C72.3137 68.0081 73.4031 69.0975 74.7519 69.0975H75.3484C76.6972 69.0975 77.7866 68.0081 77.7866 66.6594V20.5944ZM17.6894 16.3666C17.2216 16.3666 16.773 16.5524 16.4422 16.8832C16.1114 17.2139 15.9256 17.6625 15.9256 18.1303V25.1075C15.9256 25.6263 15.5106 26.0153 15.0178 26.0153C14.4991 26.0153 14.11 25.6003 14.11 25.1075V18.2081C14.11 17.2484 13.3578 16.3925 12.3981 16.3666C11.3866 16.3406 10.5566 17.1447 10.5566 18.1303V25.1075C10.5566 25.6263 10.1416 26.0153 9.64875 26.0153C9.13 26.0153 8.74094 25.6003 8.74094 25.1075V18.2081C8.74094 17.2484 7.98875 16.3925 7.02906 16.3666C6.0175 16.3406 5.1875 17.1447 5.1875 18.1303V30.0097C5.1875 32.3492 6.32097 34.4372 8.06397 35.7393C9.62281 36.6186 9.62281 40.6441 9.62281 40.6441V66.6334C9.62281 67.9822 10.7122 69.0716 12.0609 69.0716H12.6575C14.0063 69.0716 15.0956 67.9822 15.0956 66.6334V40.6441C15.0956 40.6441 15.0956 36.7768 16.6545 35.7393C17.5467 35.074 18.2714 34.2096 18.7708 33.2149C19.2701 32.2202 19.5304 31.1227 19.5309 30.0097V18.1303C19.5047 17.6577 19.2999 17.2126 18.958 16.8852C18.6162 16.5578 18.1627 16.3724 17.6894 16.3666Z" fill="black"/>
<path d="M96.056 32.32C94.392 32.32 92.8347 32.032 91.384 31.456C89.9333 30.8587 88.664 30.0373 87.576 28.992C86.5093 27.9467 85.6667 26.7307 85.048 25.344C84.4507 23.936 84.152 22.4213 84.152 20.8C84.152 19.1573 84.4507 17.6427 85.048 16.256C85.6667 14.848 86.52 13.6213 87.608 12.576C88.696 11.5307 89.9547 10.72 91.384 10.144C92.8347 9.54667 94.392 9.248 96.056 9.248C97.2933 9.248 98.488 9.41867 99.64 9.76C100.792 10.1013 101.859 10.5813 102.84 11.2C103.843 11.8187 104.696 12.5653 105.4 13.44L102.264 16.544C101.453 15.5413 100.515 14.784 99.448 14.272C98.4027 13.76 97.272 13.504 96.056 13.504C95.0533 13.504 94.1147 13.696 93.24 14.08C92.3653 14.4427 91.608 14.9547 90.968 15.616C90.328 16.256 89.8267 17.024 89.464 17.92C89.1013 18.7947 88.92 19.7547 88.92 20.8C88.92 21.824 89.1013 22.784 89.464 23.68C89.8267 24.5547 90.3387 25.3227 91 25.984C91.6613 26.624 92.4293 27.1253 93.304 27.488C94.2 27.8507 95.1707 28.032 96.216 28.032C97.3893 28.032 98.488 27.7867 99.512 27.296C100.536 26.8053 101.443 26.1013 102.232 25.184L105.272 28.192C104.568 29.0453 103.725 29.7813 102.744 30.4C101.763 31.0187 100.696 31.4987 99.544 31.84C98.4133 32.16 97.2507 32.32 96.056 32.32ZM113.009 32.288C111.814 32.288 110.758 32.0747 109.841 31.648C108.923 31.2 108.209 30.592 107.697 29.824C107.185 29.056 106.929 28.1707 106.929 27.168C106.929 25.568 107.526 24.3307 108.721 23.456C109.937 22.56 111.601 22.112 113.713 22.112C115.163 22.112 116.529 22.336 117.809 22.784V21.568C117.809 20.608 117.51 19.8827 116.913 19.392C116.315 18.9013 115.441 18.656 114.289 18.656C113.585 18.656 112.827 18.7733 112.017 19.008C111.206 19.2213 110.267 19.5627 109.201 20.032L107.601 16.8C108.923 16.2027 110.182 15.7547 111.377 15.456C112.593 15.1573 113.809 15.008 115.025 15.008C117.265 15.008 119.003 15.552 120.241 16.64C121.499 17.7067 122.129 19.2213 122.129 21.184V32H117.809V30.816C117.126 31.328 116.39 31.7013 115.601 31.936C114.811 32.1707 113.947 32.288 113.009 32.288ZM111.089 27.072C111.089 27.712 111.366 28.224 111.921 28.608C112.475 28.9707 113.211 29.152 114.129 29.152C114.854 29.152 115.526 29.0667 116.145 28.896C116.763 28.704 117.318 28.4267 117.809 28.064V25.632C117.275 25.4187 116.721 25.2587 116.145 25.152C115.569 25.0453 114.95 24.992 114.289 24.992C113.286 24.992 112.497 25.184 111.921 25.568C111.366 25.9307 111.089 26.432 111.089 27.072ZM125.447 32V9.6L129.831 8.864V32H125.447ZM91.128 74V55.696H83.576V51.6H103.288V55.696H95.768V74H91.128ZM104.228 74V57.328H108.612V59.184C109.145 58.4587 109.785 57.904 110.532 57.52C111.279 57.136 112.121 56.944 113.06 56.944C113.871 56.9653 114.479 57.0933 114.884 57.328V61.168C114.564 61.0187 114.212 60.912 113.828 60.848C113.444 60.7627 113.049 60.72 112.644 60.72C111.791 60.72 111.012 60.9333 110.308 61.36C109.604 61.7867 109.039 62.3947 108.612 63.184V74H104.228ZM122.134 74.288C120.939 74.288 119.883 74.0747 118.966 73.648C118.048 73.2 117.334 72.592 116.822 71.824C116.31 71.056 116.054 70.1707 116.054 69.168C116.054 67.568 116.651 66.3307 117.846 65.456C119.062 64.56 120.726 64.112 122.838 64.112C124.288 64.112 125.654 64.336 126.934 64.784V63.568C126.934 62.608 126.635 61.8827 126.038 61.392C125.44 60.9013 124.566 60.656 123.414 60.656C122.71 60.656 121.952 60.7733 121.142 61.008C120.331 61.2213 119.392 61.5627 118.326 62.032L116.726 58.8C118.048 58.2027 119.307 57.7547 120.502 57.456C121.718 57.1573 122.934 57.008 124.15 57.008C126.39 57.008 128.128 57.552 129.366 58.64C130.624 59.7067 131.254 61.2213 131.254 63.184V74H126.934V72.816C126.251 73.328 125.515 73.7013 124.726 73.936C123.936 74.1707 123.072 74.288 122.134 74.288ZM120.214 69.072C120.214 69.712 120.491 70.224 121.046 70.608C121.6 70.9707 122.336 71.152 123.254 71.152C123.979 71.152 124.651 71.0667 125.27 70.896C125.888 70.704 126.443 70.4267 126.934 70.064V67.632C126.4 67.4187 125.846 67.2587 125.27 67.152C124.694 67.0453 124.075 66.992 123.414 66.992C122.411 66.992 121.622 67.184 121.046 67.568C120.491 67.9307 120.214 68.432 120.214 69.072ZM142.54 74.32C140.897 74.32 139.414 73.9467 138.092 73.2C136.769 72.432 135.724 71.3973 134.956 70.096C134.188 68.7733 133.804 67.3013 133.804 65.68C133.804 64.0373 134.188 62.5653 134.956 61.264C135.724 59.9627 136.769 58.928 138.092 58.16C139.414 57.392 140.897 57.008 142.54 57.008C143.862 57.008 145.121 57.264 146.316 57.776C147.532 58.288 148.577 59.024 149.452 59.984L146.764 62.832C146.145 62.1493 145.494 61.648 144.812 61.328C144.15 60.9867 143.425 60.816 142.636 60.816C141.782 60.816 141.014 61.0293 140.332 61.456C139.67 61.8827 139.137 62.4587 138.732 63.184C138.348 63.9093 138.156 64.7413 138.156 65.68C138.156 66.576 138.348 67.3973 138.732 68.144C139.137 68.8693 139.692 69.4453 140.396 69.872C141.1 70.2773 141.878 70.48 142.732 70.48C143.478 70.48 144.172 70.3307 144.812 70.032C145.473 69.712 146.102 69.2427 146.7 68.624L149.324 71.376C148.47 72.2933 147.446 73.0187 146.252 73.552C145.057 74.064 143.82 74.32 142.54 74.32ZM151.603 74V51.6L155.987 50.864V64.336L163.187 57.328H168.147L160.275 64.976L168.627 74H163.027L155.987 66.384V74H151.603Z" fill="#1CD24F"/>
</svg>
